<mxfile host="app.diagrams.net" modified="2024-05-03T08:49:20.318Z" agent="Mozilla/5.0 (Windows NT 10.0; Win64; x64) AppleWebKit/537.36 (KHTML, like Gecko) Chrome/124.0.0.0 Safari/537.36" etag="YL05fhEs_wxD9rK2uMbg" version="24.3.1" type="device">
  <diagram name="Page-1" id="oUOwjPoZt_Apmm9b5Wj1">
    <mxGraphModel dx="1461" dy="652" grid="1" gridSize="10" guides="1" tooltips="1" connect="1" arrows="1" fold="1" page="1" pageScale="1" pageWidth="850" pageHeight="1100" math="0" shadow="0">
      <root>
        <mxCell id="0" />
        <mxCell id="1" parent="0" />
        <mxCell id="YrU0DJQLvihLWbbGZrXa-1" value="HCP" style="html=1;whiteSpace=wrap;" vertex="1" parent="1">
          <mxGeometry x="110" y="230" width="110" height="50" as="geometry" />
        </mxCell>
        <mxCell id="YrU0DJQLvihLWbbGZrXa-2" value="Pharmacist" style="html=1;whiteSpace=wrap;" vertex="1" parent="1">
          <mxGeometry x="340" y="230" width="110" height="50" as="geometry" />
        </mxCell>
        <mxCell id="YrU0DJQLvihLWbbGZrXa-3" value="Inventory" style="html=1;whiteSpace=wrap;" vertex="1" parent="1">
          <mxGeometry x="580" y="230" width="110" height="50" as="geometry" />
        </mxCell>
        <mxCell id="YrU0DJQLvihLWbbGZrXa-4" value="request medicine/&lt;div&gt;medical equipment&lt;/div&gt;" style="html=1;verticalAlign=bottom;endArrow=block;curved=0;rounded=0;entryX=0;entryY=0.25;entryDx=0;entryDy=0;exitX=1;exitY=0.25;exitDx=0;exitDy=0;" edge="1" parent="1" source="YrU0DJQLvihLWbbGZrXa-1" target="YrU0DJQLvihLWbbGZrXa-2">
          <mxGeometry width="80" relative="1" as="geometry">
            <mxPoint x="220" y="240" as="sourcePoint" />
            <mxPoint x="300" y="240" as="targetPoint" />
          </mxGeometry>
        </mxCell>
        <mxCell id="YrU0DJQLvihLWbbGZrXa-5" value="check inventory" style="html=1;verticalAlign=bottom;endArrow=block;curved=0;rounded=0;" edge="1" parent="1">
          <mxGeometry x="0.0769" width="80" relative="1" as="geometry">
            <mxPoint x="450" y="240" as="sourcePoint" />
            <mxPoint x="580" y="240" as="targetPoint" />
            <mxPoint as="offset" />
          </mxGeometry>
        </mxCell>
        <mxCell id="YrU0DJQLvihLWbbGZrXa-6" value="provide requested items" style="html=1;verticalAlign=bottom;endArrow=block;curved=0;rounded=0;exitX=0;exitY=0.75;exitDx=0;exitDy=0;entryX=1;entryY=0.75;entryDx=0;entryDy=0;" edge="1" parent="1" source="YrU0DJQLvihLWbbGZrXa-3" target="YrU0DJQLvihLWbbGZrXa-2">
          <mxGeometry x="-0.0769" y="23" width="80" relative="1" as="geometry">
            <mxPoint x="380" y="340" as="sourcePoint" />
            <mxPoint x="460" y="340" as="targetPoint" />
            <mxPoint as="offset" />
          </mxGeometry>
        </mxCell>
        <mxCell id="YrU0DJQLvihLWbbGZrXa-7" value="provide requested items" style="html=1;verticalAlign=bottom;endArrow=block;curved=0;rounded=0;exitX=0;exitY=0.75;exitDx=0;exitDy=0;entryX=1;entryY=0.75;entryDx=0;entryDy=0;" edge="1" parent="1" source="YrU0DJQLvihLWbbGZrXa-2" target="YrU0DJQLvihLWbbGZrXa-1">
          <mxGeometry y="23" width="80" relative="1" as="geometry">
            <mxPoint x="380" y="340" as="sourcePoint" />
            <mxPoint x="460" y="340" as="targetPoint" />
            <mxPoint as="offset" />
          </mxGeometry>
        </mxCell>
      </root>
    </mxGraphModel>
  </diagram>
</mxfile>
